<svg version="1.1" id="Layer_1" xmlns="http://www.w3.org/2000/svg" xmlns:xlink="http://www.w3.org/1999/xlink" x="0px" y="0px"
	 width="100%" viewBox="0 0 512 512" enable-background="new 0 0 512 512" xml:space="preserve">
<path fill="#EA1F63" opacity="1.000000" stroke="none" 
	d="
M283.000000,513.000000 
	C188.689560,513.000000 94.879120,513.000000 1.034338,513.000000 
	C1.034338,342.397858 1.034338,171.795731 1.034338,1.096792 
	C171.560455,1.096792 342.121002,1.096792 512.840759,1.096792 
	C512.840759,171.666550 512.840759,342.333252 512.840759,513.000000 
	C436.462372,513.000000 359.981171,513.000000 283.000000,513.000000 
M336.120178,202.804153 
	C335.840607,202.972961 335.705658,203.220642 335.710541,203.661636 
	C335.710541,203.661636 335.596344,203.670700 334.935791,203.709030 
	C334.347870,204.537918 333.759949,205.366806 333.050934,206.050522 
	C333.050934,206.050522 333.194092,206.174026 332.455902,206.147171 
	C327.810394,207.838058 323.882812,210.307907 322.355560,215.353088 
	C322.355560,215.353088 322.433380,215.344437 321.904205,215.512924 
	C321.661194,215.784103 321.418213,216.055283 321.197021,216.231720 
	C321.197021,216.231720 321.290710,216.257645 320.568542,216.243469 
	C318.599152,217.070953 316.692352,218.130051 314.648590,218.682327 
	C308.645447,220.304459 305.268402,224.590881 302.943054,229.920425 
	C301.027435,234.310852 303.272430,240.230240 307.445251,242.316483 
	C314.109100,245.648148 323.800018,242.396698 327.793701,235.747375 
	C327.793701,235.747375 327.606323,235.571335 328.366272,235.618408 
	C333.319061,232.251678 338.558167,229.229782 343.144806,225.421936 
	C347.800751,221.556549 352.143402,217.189270 356.003052,212.528214 
	C359.143250,208.736008 361.366974,204.184875 364.012878,200.007217 
	C364.012878,200.007217 363.973145,200.001480 364.648743,199.843506 
	C369.921722,197.009415 370.476166,195.903473 367.826630,190.618149 
	C366.436096,187.844254 364.194794,185.497681 362.344177,182.953384 
	C359.914917,179.613525 357.046234,176.495163 355.201355,172.858093 
	C353.600952,169.702942 351.776337,168.615479 348.493439,169.500214 
	C348.493439,169.500214 348.477539,169.457703 348.603668,168.704788 
	C347.239563,167.666351 345.875427,166.627914 344.514252,165.537338 
	C344.514252,165.537338 344.462067,165.539215 344.301514,165.057648 
	C344.020599,164.885986 343.739716,164.714325 343.987946,163.998169 
	C343.812561,164.180130 343.637207,164.362076 343.298279,164.068161 
	C343.015289,163.906937 342.732269,163.745697 342.608032,163.189148 
	C342.608032,163.189148 342.417480,163.570328 342.388214,162.872055 
	C340.381439,160.703125 338.668152,158.121078 336.310577,156.445877 
	C330.236938,152.130234 324.275146,147.318649 317.545013,144.340622 
	C305.937469,139.204361 293.975677,134.645004 281.801422,131.075073 
	C269.272491,127.401138 256.254974,127.705376 243.207794,128.914566 
	C226.307114,130.480896 210.932724,136.201965 196.268173,144.287994 
	C195.063889,144.952042 194.275009,146.369446 193.209320,147.299545 
	C193.209320,147.299545 193.336121,147.398468 192.570511,147.286316 
	C183.929031,149.326523 178.679810,156.344620 172.067566,161.350571 
	C171.412399,161.846588 171.324448,163.091858 170.989273,163.989532 
	C170.989273,163.989532 170.989044,163.973541 170.410278,164.126068 
	C170.054138,164.581512 169.698013,165.036957 169.334564,165.411316 
	C169.334564,165.411316 169.410538,165.440536 168.683380,165.397995 
	C164.892303,168.436630 158.202377,168.884811 159.016617,176.023926 
	C159.016617,176.023926 159.121780,176.097076 158.436340,176.200531 
	C155.975143,179.492844 153.513931,182.785156 151.015594,186.020172 
	C151.015594,186.020172 151.081268,186.038803 150.389725,186.174042 
	C145.307022,189.560104 143.461700,194.136765 146.506531,197.697800 
	C155.335999,208.024139 164.435135,218.125290 173.649734,228.110641 
	C174.936234,229.504791 177.465195,229.752380 179.263229,230.907745 
	C179.263229,230.907745 179.390564,230.520554 179.611588,230.994583 
	C179.915497,231.148331 180.219421,231.302063 180.535645,231.513885 
	C180.535645,231.513885 180.585602,231.481796 180.455719,232.231750 
	C182.428925,233.355804 184.402115,234.479874 186.235779,235.726639 
	C186.235779,235.726639 186.333832,235.568802 186.496017,236.247482 
	C190.324905,238.636932 193.897919,241.855789 198.067154,243.141922 
	C201.159378,244.095810 205.860855,244.608704 207.983231,240.002426 
	C207.831955,239.856216 207.680679,239.710022 208.220917,239.416901 
	C213.827072,234.613861 210.139938,222.371948 202.545425,219.181351 
	C198.105133,217.315887 194.165680,214.278824 189.933868,211.887482 
	C188.015045,210.803192 185.933365,210.007126 184.000000,209.000000 
	C184.000000,209.000000 183.924545,209.079147 183.880615,208.367371 
	C182.833344,207.653564 181.786087,206.939758 180.850006,206.144806 
	C180.850006,206.144806 180.777664,206.261902 180.739471,205.561096 
	C179.450500,204.399734 178.161545,203.238373 176.945908,202.058105 
	C176.945908,202.058105 176.909622,202.124573 176.923706,201.384796 
	C176.472763,200.331726 176.266953,199.046600 175.528046,198.266174 
	C172.491852,195.059372 172.805664,192.060043 175.821198,189.162659 
	C182.053818,183.174225 188.210907,177.097443 194.657288,171.346451 
	C196.966995,169.285873 199.856506,167.283859 202.780045,166.664230 
	C205.883682,166.006424 205.968704,164.389343 206.502716,162.069443 
	C206.502716,162.069443 206.938004,161.981964 207.744797,162.019196 
	C209.628662,161.459869 211.586197,161.074585 213.384613,160.313385 
	C226.436829,154.788589 239.754898,150.322739 254.173767,150.983994 
	C261.576752,151.323502 268.972412,152.063278 276.339111,152.904572 
	C293.948547,154.915619 308.493744,163.506699 322.040710,174.314011 
	C325.535492,177.102066 329.562164,179.223419 333.250977,181.726822 
	C333.250977,181.726822 333.291443,181.613434 333.521667,182.099777 
	C333.820892,182.285385 334.120087,182.470993 334.154419,182.762100 
	C334.154419,182.762100 334.401855,182.620377 334.369659,183.332733 
	C336.632904,185.520752 338.896149,187.708786 341.079834,189.923340 
	C341.079834,189.923340 341.121490,189.850555 341.058655,190.691833 
	C339.904663,194.295486 338.750702,197.899124 337.449493,201.315536 
	C337.449493,201.315536 337.556122,201.528519 337.105499,201.697266 
	C336.825714,201.907181 336.692505,202.186890 336.706879,202.693146 
	C336.706879,202.693146 336.550842,202.708237 336.120178,202.804153 
M291.206207,338.110809 
	C294.102997,345.552063 297.042511,352.977112 299.878174,360.441620 
	C301.241913,364.031464 303.711121,365.618011 307.532928,365.539886 
	C312.692596,365.434387 317.856354,365.540649 323.018372,365.537170 
	C330.861023,365.531891 332.322052,363.480469 329.590607,356.123474 
	C319.167877,328.050476 308.701508,299.993713 298.276733,271.921478 
	C291.616730,253.987244 285.033630,236.024414 278.349396,218.099258 
	C275.735626,211.089905 273.904541,209.937531 266.486572,209.971588 
	C260.825104,209.997574 255.163452,210.000809 249.501892,209.995956 
	C239.508636,209.987381 238.568619,210.753937 235.090378,220.160675 
	C225.228333,246.832138 215.264771,273.466034 205.363586,300.123047 
	C198.355103,318.992004 191.308777,337.847534 184.434265,356.765350 
	C181.960709,363.572205 183.481003,365.462921 190.826508,365.527588 
	C195.488739,365.568634 200.167160,365.296265 204.810135,365.598022 
	C210.275345,365.953186 213.506653,363.880676 215.259048,358.566223 
	C217.549133,351.621094 220.210510,344.776428 223.162170,338.087097 
	C223.887085,336.444214 226.345062,334.525482 228.027985,334.504822 
	C247.507843,334.266235 266.992554,334.303619 286.473511,334.506531 
	C287.979675,334.522217 289.467133,336.336609 291.206207,338.110809 
M318.727661,90.448853 
	C317.117401,99.412445 321.631775,104.883545 330.922333,104.909912 
	C354.072296,104.975624 377.222565,104.932022 400.372711,104.932304 
	C402.134277,104.932327 403.895844,104.932312 405.976837,104.932312 
	C405.976837,107.396561 405.976746,109.202019 405.976837,111.007484 
	C405.977783,134.324173 405.953827,157.640915 405.994598,180.957520 
	C406.007385,188.272354 410.302429,192.294159 417.605316,192.049820 
	C423.866791,191.840317 427.964874,187.413528 427.977417,180.465134 
	C428.029633,151.485931 428.030457,122.506493 427.976349,93.527290 
	C427.963837,86.835876 423.814484,82.877731 416.887421,82.873276 
	C387.741821,82.854523 358.596161,82.933670 329.450592,82.895691 
	C324.349609,82.889046 320.894287,85.049644 318.727661,90.448853 
M138.499985,412.056549 
	C156.819473,412.054749 175.139297,411.993683 193.458206,412.095703 
	C197.678513,412.119202 200.949799,410.695770 203.187851,407.181000 
	C205.405151,403.698822 205.724121,399.996918 203.722733,396.282623 
	C201.641083,392.419403 198.410599,390.631287 193.956543,390.641327 
	C170.641083,390.693878 147.325394,390.656525 124.009819,390.627777 
	C122.104881,390.625427 120.200157,390.453247 118.091278,390.349976 
	C118.091278,387.880096 118.091400,386.056732 118.091248,384.233398 
	C118.089310,361.084229 118.113403,337.934967 118.068779,314.785889 
	C118.056129,308.223755 113.951462,304.062775 107.684372,304.000153 
	C101.027054,303.933594 96.905098,307.969788 96.883827,314.852875 
	C96.794815,343.663269 96.733116,372.473846 96.747818,401.284332 
	C96.751465,408.428101 100.432907,412.028564 107.522964,412.067841 
	C117.514969,412.123199 127.507607,412.065765 138.499985,412.056549 
M200.149185,91.739769 
	C198.982895,85.286324 196.284119,82.949905 189.695343,82.938599 
	C162.206436,82.891426 134.717453,82.867661 107.228500,82.873970 
	C99.965881,82.875641 96.755936,85.940498 96.753708,93.108604 
	C96.745049,120.929909 96.759331,148.751862 97.004730,176.571442 
	C97.025688,178.946442 98.288376,181.779221 99.896706,183.571548 
	C103.013084,187.044449 107.405167,187.136566 111.452431,185.456711 
	C115.234360,183.886993 117.233162,180.833817 117.210968,176.404556 
	C117.112480,156.746216 117.178604,137.087036 117.184547,117.428162 
	C117.185890,112.965828 117.184738,108.503487 117.184738,103.345291 
	C119.581833,103.345291 121.523537,103.345467 123.465248,103.345261 
	C145.289978,103.342995 167.114868,103.387856 188.939331,103.313179 
	C196.750397,103.286453 199.850555,100.190041 200.149185,91.739769 
M403.850220,350.499939 
	C403.850220,367.392303 403.850220,384.284668 403.850220,401.607025 
	C401.110260,401.607025 399.136932,401.605164 397.163605,401.607300 
	C375.354431,401.630829 353.544525,401.564026 331.736542,401.736725 
	C325.528992,401.785858 321.893250,405.948639 322.004272,411.958740 
	C322.111847,417.780670 326.156189,421.952515 332.157379,421.967346 
	C359.627533,422.035217 387.097961,422.027039 414.568146,421.974121 
	C420.153015,421.963379 423.962891,418.172668 423.974182,412.593292 
	C424.030121,384.956635 424.039948,357.319672 423.966217,329.683105 
	C423.950226,323.681641 419.790161,319.956696 413.676453,320.000153 
	C407.745270,320.042328 404.000244,323.584412 403.895752,329.522217 
	C403.778595,336.179657 403.856964,342.840546 403.850220,350.499939 
M266.861298,197.483139 
	C275.775635,191.393097 278.690582,182.395233 274.673676,173.368027 
	C271.310211,165.809311 262.058044,161.368149 253.920517,163.406204 
	C243.343994,166.055115 237.419342,176.692612 240.790649,186.980423 
	C244.289658,197.657944 254.961624,202.220856 266.861298,197.483139 
M184.479065,204.504272 
	C184.479065,204.504272 184.507278,204.496780 184.479065,204.504272 
z"/>
<path fill="#FDF9FC" opacity="1.000000" stroke="none" 
	d="
M291.084747,337.712921 
	C289.467133,336.336609 287.979675,334.522217 286.473511,334.506531 
	C266.992554,334.303619 247.507843,334.266235 228.027985,334.504822 
	C226.345062,334.525482 223.887085,336.444214 223.162170,338.087097 
	C220.210510,344.776428 217.549133,351.621094 215.259048,358.566223 
	C213.506653,363.880676 210.275345,365.953186 204.810135,365.598022 
	C200.167160,365.296265 195.488739,365.568634 190.826508,365.527588 
	C183.481003,365.462921 181.960709,363.572205 184.434265,356.765350 
	C191.308777,337.847534 198.355103,318.992004 205.363586,300.123047 
	C215.264771,273.466034 225.228333,246.832138 235.090378,220.160675 
	C238.568619,210.753937 239.508636,209.987381 249.501892,209.995956 
	C255.163452,210.000809 260.825104,209.997574 266.486572,209.971588 
	C273.904541,209.937531 275.735626,211.089905 278.349396,218.099258 
	C285.033630,236.024414 291.616730,253.987244 298.276733,271.921478 
	C308.701508,299.993713 319.167877,328.050476 329.590607,356.123474 
	C332.322052,363.480469 330.861023,365.531891 323.018372,365.537170 
	C317.856354,365.540649 312.692596,365.434387 307.532928,365.539886 
	C303.711121,365.618011 301.241913,364.031464 299.878174,360.441620 
	C297.042511,352.977112 294.102997,345.552063 291.084747,337.712921 
M262.816284,255.661392 
	C261.110443,251.216843 259.404602,246.772293 257.698761,242.327744 
	C257.291504,242.282120 256.884216,242.236496 256.476959,242.190872 
	C248.451691,264.088776 240.426437,285.986664 232.230759,308.349548 
	C249.303848,308.349548 265.154999,308.349548 281.981995,308.349548 
	C275.506714,290.598663 269.270630,273.503479 262.816284,255.661392 
z"/>
<path fill="#FBF5F9" opacity="1.000000" stroke="none" 
	d="
M206.938004,161.981964 
	C206.938004,161.981964 206.502716,162.069443 205.931320,162.110016 
	C195.369934,170.243912 184.971497,177.892151 175.516586,186.568604 
	C167.669189,193.769897 168.237656,195.094666 176.909622,202.124573 
	C176.909622,202.124573 176.945908,202.058105 176.989594,202.385437 
	C178.281418,203.895813 179.529541,205.078857 180.777664,206.261902 
	C180.777664,206.261902 180.850006,206.144806 180.903656,206.484222 
	C181.946381,207.575470 182.935471,208.327301 183.924545,209.079147 
	C183.924545,209.079147 184.000000,209.000000 184.097656,209.344879 
	C190.221161,214.258026 196.033127,219.149704 202.327423,223.311996 
	C210.056870,228.423325 211.239288,231.261353 207.529404,239.563843 
	C207.680679,239.710022 207.831955,239.856216 207.401474,239.889297 
	C202.380753,242.908554 197.972351,242.549545 193.517746,239.756790 
	C191.170486,238.285217 188.731430,236.960068 186.333832,235.568802 
	C186.333832,235.568802 186.235779,235.726639 186.150208,235.377960 
	C184.238297,233.846771 182.411957,232.664276 180.585602,231.481796 
	C180.585602,231.481796 180.535645,231.513885 180.421387,231.243988 
	C180.001617,230.822922 179.696091,230.671738 179.390564,230.520554 
	C179.390564,230.520554 179.263229,230.907745 179.179413,230.433441 
	C170.278137,220.934341 161.484619,211.885956 152.634003,202.893768 
	C147.485291,197.662674 144.832718,192.281738 151.081268,186.038803 
	C151.081268,186.038803 151.015594,186.020172 151.338165,185.905487 
	C154.147751,182.559570 156.634766,179.328323 159.121780,176.097076 
	C159.121780,176.097076 159.016617,176.023926 159.369019,175.940430 
	C162.951141,172.384796 166.180832,168.912659 169.410538,165.440536 
	C169.410538,165.440536 169.334564,165.411316 169.630112,165.377472 
	C170.280121,164.886932 170.634583,164.430237 170.989044,163.973541 
	C170.989044,163.973541 170.989273,163.989532 171.301910,163.880585 
	C178.855087,158.313919 186.095596,152.856186 193.336121,147.398468 
	C193.336121,147.398468 193.209320,147.299545 193.611984,147.309937 
	C234.220337,125.225151 274.909088,123.849304 315.664673,145.360062 
	C325.145111,150.363815 333.529053,157.445007 342.417480,163.570312 
	C342.417480,163.570328 342.608032,163.189148 342.613617,163.623138 
	C342.900085,164.219421 343.180939,164.381729 343.461823,164.544037 
	C343.637207,164.362076 343.812561,164.180130 343.803101,164.512421 
	C343.899536,165.197525 344.180786,165.368378 344.462067,165.539215 
	C344.462067,165.539215 344.514252,165.537338 344.652710,165.842224 
	C346.019928,167.250641 347.248749,168.354172 348.477539,169.457703 
	C348.477539,169.457703 348.493439,169.500214 348.651459,169.809967 
	C353.401672,175.539642 357.848022,181.092560 362.631287,186.338257 
	C366.608276,190.699753 368.390472,194.963943 363.973145,200.001480 
	C363.973145,200.001480 364.012878,200.007217 363.705078,200.140854 
	C353.262268,213.860535 341.140198,225.431732 327.606323,235.571335 
	C327.606323,235.571335 327.793701,235.747375 327.372803,235.715698 
	C324.249054,237.310333 321.612122,239.060822 318.829285,240.536224 
	C313.564850,243.327347 307.763519,241.887192 305.348938,237.346390 
	C302.962036,232.857635 304.713562,227.793167 309.559967,224.556213 
	C313.541565,221.896851 317.385651,219.031616 321.290710,216.257629 
	C321.290710,216.257645 321.197021,216.231720 321.469482,216.227112 
	C321.972412,215.929825 322.202881,215.637131 322.433380,215.344437 
	C322.433380,215.344437 322.355560,215.353088 322.702393,215.297058 
	C326.430817,212.218704 329.812469,209.196365 333.194092,206.174026 
	C333.194092,206.174026 333.050934,206.050522 333.394714,206.020966 
	C334.357788,205.217834 334.977051,204.444260 335.596344,203.670700 
	C335.596344,203.670700 335.710541,203.661636 335.920410,203.544800 
	C336.396057,203.261444 336.536255,203.021530 336.550842,202.708237 
	C336.550842,202.708237 336.706879,202.693146 336.924133,202.521332 
	C337.412354,202.142899 337.550629,201.869232 337.556122,201.528519 
	C337.556122,201.528519 337.449493,201.315536 337.824463,201.277145 
	C339.413635,199.936829 340.589447,198.596375 341.849854,197.340790 
	C344.677643,194.523804 344.487274,192.043686 341.121490,189.850555 
	C341.121490,189.850555 341.079834,189.923340 341.027161,189.584930 
	C338.783600,187.037796 336.592712,184.829086 334.401855,182.620377 
	C334.401855,182.620377 334.154419,182.762100 334.189697,182.452026 
	C333.913788,181.965775 333.602631,181.789612 333.291443,181.613434 
	C333.291443,181.613434 333.250977,181.726822 333.174438,181.380981 
	C304.249847,153.784866 270.680878,142.602295 231.528198,152.151016 
	C223.037292,154.221802 215.119675,158.643234 206.938004,161.981964 
z"/>
<path fill="#FFFEFE" opacity="1.000000" stroke="none" 
	d="
M318.825378,90.073349 
	C320.894287,85.049644 324.349609,82.889046 329.450592,82.895691 
	C358.596161,82.933670 387.741821,82.854523 416.887421,82.873276 
	C423.814484,82.877731 427.963837,86.835876 427.976349,93.527290 
	C428.030457,122.506493 428.029633,151.485931 427.977417,180.465134 
	C427.964874,187.413528 423.866791,191.840317 417.605316,192.049820 
	C410.302429,192.294159 406.007385,188.272354 405.994598,180.957520 
	C405.953827,157.640915 405.977783,134.324173 405.976837,111.007484 
	C405.976746,109.202019 405.976837,107.396561 405.976837,104.932312 
	C403.895844,104.932312 402.134277,104.932327 400.372711,104.932304 
	C377.222565,104.932022 354.072296,104.975624 330.922333,104.909912 
	C321.631775,104.883545 317.117401,99.412445 318.825378,90.073349 
z"/>
<path fill="#FFFFFF" opacity="1.000000" stroke="none" 
	d="
M137.999969,412.056519 
	C127.507607,412.065765 117.514969,412.123199 107.522964,412.067841 
	C100.432907,412.028564 96.751465,408.428101 96.747818,401.284332 
	C96.733116,372.473846 96.794815,343.663269 96.883827,314.852875 
	C96.905098,307.969788 101.027054,303.933594 107.684372,304.000153 
	C113.951462,304.062775 118.056129,308.223755 118.068779,314.785889 
	C118.113403,337.934967 118.089310,361.084229 118.091248,384.233398 
	C118.091400,386.056732 118.091278,387.880096 118.091278,390.349976 
	C120.200157,390.453247 122.104881,390.625427 124.009819,390.627777 
	C147.325394,390.656525 170.641083,390.693878 193.956543,390.641327 
	C198.410599,390.631287 201.641083,392.419403 203.722733,396.282623 
	C205.724121,399.996918 205.405151,403.698822 203.187851,407.181000 
	C200.949799,410.695770 197.678513,412.119202 193.458206,412.095703 
	C175.139297,411.993683 156.819473,412.054749 137.999969,412.056519 
z"/>
<path fill="#FFFFFF" opacity="1.000000" stroke="none" 
	d="
M200.164215,92.165741 
	C199.850555,100.190041 196.750397,103.286453 188.939331,103.313179 
	C167.114868,103.387856 145.289978,103.342995 123.465248,103.345261 
	C121.523537,103.345467 119.581833,103.345291 117.184738,103.345291 
	C117.184738,108.503487 117.185890,112.965828 117.184547,117.428162 
	C117.178604,137.087036 117.112480,156.746216 117.210968,176.404556 
	C117.233162,180.833817 115.234360,183.886993 111.452431,185.456711 
	C107.405167,187.136566 103.013084,187.044449 99.896706,183.571548 
	C98.288376,181.779221 97.025688,178.946442 97.004730,176.571442 
	C96.759331,148.751862 96.745049,120.929909 96.753708,93.108604 
	C96.755936,85.940498 99.965881,82.875641 107.228500,82.873970 
	C134.717453,82.867661 162.206436,82.891426 189.695343,82.938599 
	C196.284119,82.949905 198.982895,85.286324 200.164215,92.165741 
z"/>
<path fill="#FFFFFF" opacity="1.000000" stroke="none" 
	d="
M403.850220,349.999939 
	C403.856964,342.840546 403.778595,336.179657 403.895752,329.522217 
	C404.000244,323.584412 407.745270,320.042328 413.676453,320.000153 
	C419.790161,319.956696 423.950226,323.681641 423.966217,329.683105 
	C424.039948,357.319672 424.030121,384.956635 423.974182,412.593292 
	C423.962891,418.172668 420.153015,421.963379 414.568146,421.974121 
	C387.097961,422.027039 359.627533,422.035217 332.157379,421.967346 
	C326.156189,421.952515 322.111847,417.780670 322.004272,411.958740 
	C321.893250,405.948639 325.528992,401.785858 331.736542,401.736725 
	C353.544525,401.564026 375.354431,401.630829 397.163605,401.607300 
	C399.136932,401.605164 401.110260,401.607025 403.850220,401.607025 
	C403.850220,384.284668 403.850220,367.392303 403.850220,349.999939 
z"/>
<path fill="#FCF6FA" opacity="1.000000" stroke="none" 
	d="
M266.529388,197.663239 
	C254.961624,202.220856 244.289658,197.657944 240.790649,186.980423 
	C237.419342,176.692612 243.343994,166.055115 253.920517,163.406204 
	C262.058044,161.368149 271.310211,165.809311 274.673676,173.368027 
	C278.690582,182.395233 275.775635,191.393097 266.529388,197.663239 
z"/>
<path fill="#D44376" opacity="1.000000" stroke="none" 
	d="
M342.402832,163.221191 
	C333.529053,157.445007 325.145111,150.363815 315.664673,145.360062 
	C274.909088,123.849304 234.220337,125.225151 193.653885,147.378571 
	C194.275009,146.369446 195.063889,144.952042 196.268173,144.287994 
	C210.932724,136.201965 226.307114,130.480896 243.207794,128.914566 
	C256.254974,127.705376 269.272491,127.401138 281.801422,131.075073 
	C293.975677,134.645004 305.937469,139.204361 317.545013,144.340622 
	C324.275146,147.318649 330.236938,152.130234 336.310577,156.445877 
	C338.668152,158.121078 340.381439,160.703125 342.402832,163.221191 
z"/>
<path fill="#D44376" opacity="1.000000" stroke="none" 
	d="
M207.341400,162.000580 
	C215.119675,158.643234 223.037292,154.221802 231.528198,152.151016 
	C270.680878,142.602295 304.249847,153.784866 333.221191,181.343094 
	C329.562164,179.223419 325.535492,177.102066 322.040710,174.314011 
	C308.493744,163.506699 293.948547,154.915619 276.339111,152.904572 
	C268.972412,152.063278 261.576752,151.323502 254.173767,150.983994 
	C239.754898,150.322739 226.436829,154.788589 213.384613,160.313385 
	C211.586197,161.074585 209.628662,161.459869 207.341400,162.000580 
z"/>
<path fill="#D44376" opacity="1.000000" stroke="none" 
	d="
M176.916656,201.754684 
	C168.237656,195.094666 167.669189,193.769897 175.516586,186.568604 
	C184.971497,177.892151 195.369934,170.243912 205.715881,162.163605 
	C205.968704,164.389343 205.883682,166.006424 202.780045,166.664230 
	C199.856506,167.283859 196.966995,169.285873 194.657288,171.346451 
	C188.210907,177.097443 182.053818,183.174225 175.821198,189.162659 
	C172.805664,192.060043 172.491852,195.059372 175.528046,198.266174 
	C176.266953,199.046600 176.472763,200.331726 176.916656,201.754684 
z"/>
<path fill="#D44376" opacity="1.000000" stroke="none" 
	d="
M320.929626,216.250549 
	C317.385651,219.031616 313.541565,221.896851 309.559967,224.556213 
	C304.713562,227.793167 302.962036,232.857635 305.348938,237.346390 
	C307.763519,241.887192 313.564850,243.327347 318.829285,240.536224 
	C321.612122,239.060822 324.249054,237.310333 327.296448,235.612274 
	C323.800018,242.396698 314.109100,245.648148 307.445251,242.316483 
	C303.272430,240.230240 301.027435,234.310852 302.943054,229.920425 
	C305.268402,224.590881 308.645447,220.304459 314.648590,218.682327 
	C316.692352,218.130051 318.599152,217.070953 320.929626,216.250549 
z"/>
<path fill="#D44376" opacity="1.000000" stroke="none" 
	d="
M150.735504,186.106415 
	C144.832718,192.281738 147.485291,197.662674 152.634003,202.893768 
	C161.484619,211.885956 170.278137,220.934341 179.257324,230.244934 
	C177.465195,229.752380 174.936234,229.504791 173.649734,228.110641 
	C164.435135,218.125290 155.335999,208.024139 146.506531,197.697800 
	C143.461700,194.136765 145.307022,189.560104 150.735504,186.106415 
z"/>
<path fill="#D44376" opacity="1.000000" stroke="none" 
	d="
M327.986298,235.594879 
	C341.140198,225.431732 353.262268,213.860535 363.697205,200.122375 
	C361.366974,204.184875 359.143250,208.736008 356.003052,212.528214 
	C352.143402,217.189270 347.800751,221.556549 343.144806,225.421936 
	C338.558167,229.229782 333.319061,232.251678 327.986298,235.594879 
z"/>
<path fill="#D44376" opacity="1.000000" stroke="none" 
	d="
M207.875153,239.490372 
	C211.239288,231.261353 210.056870,228.423325 202.327423,223.311996 
	C196.033127,219.149704 190.221161,214.258026 184.060455,209.385040 
	C185.933365,210.007126 188.015045,210.803192 189.933868,211.887482 
	C194.165680,214.278824 198.105133,217.315887 202.545425,219.181351 
	C210.139938,222.371948 213.827072,234.613861 207.875153,239.490372 
z"/>
<path fill="#D44376" opacity="1.000000" stroke="none" 
	d="
M364.310944,199.922485 
	C368.390472,194.963943 366.608276,190.699753 362.631287,186.338257 
	C357.848022,181.092560 353.401672,175.539642 348.672394,169.818787 
	C351.776337,168.615479 353.600952,169.702942 355.201355,172.858093 
	C357.046234,176.495163 359.914917,179.613525 362.344177,182.953384 
	C364.194794,185.497681 366.436096,187.844254 367.826630,190.618149 
	C370.476166,195.903473 369.921722,197.009415 364.310944,199.922485 
z"/>
<path fill="#D44376" opacity="1.000000" stroke="none" 
	d="
M192.953308,147.342392 
	C186.095596,152.856186 178.855087,158.313919 171.293900,163.880508 
	C171.324448,163.091858 171.412399,161.846588 172.067566,161.350571 
	C178.679810,156.344620 183.929031,149.326523 192.953308,147.342392 
z"/>
<path fill="#D44376" opacity="1.000000" stroke="none" 
	d="
M186.414917,235.908142 
	C188.731430,236.960068 191.170486,238.285217 193.517746,239.756790 
	C197.972351,242.549545 202.380753,242.908554 207.172516,239.671265 
	C205.860855,244.608704 201.159378,244.095810 198.067154,243.141922 
	C193.897919,241.855789 190.324905,238.636932 186.414917,235.908142 
z"/>
<path fill="#D44376" opacity="1.000000" stroke="none" 
	d="
M169.046967,165.419266 
	C166.180832,168.912659 162.951141,172.384796 159.412933,175.987122 
	C158.202377,168.884811 164.892303,168.436630 169.046967,165.419266 
z"/>
<path fill="#D44376" opacity="1.000000" stroke="none" 
	d="
M332.825012,206.160599 
	C329.812469,209.196365 326.430817,212.218704 322.720825,215.331604 
	C323.882812,210.307907 327.810394,207.838058 332.825012,206.160599 
z"/>
<path fill="#D44376" opacity="1.000000" stroke="none" 
	d="
M341.090088,190.271194 
	C344.487274,192.043686 344.677643,194.523804 341.849854,197.340790 
	C340.589447,198.596375 339.413635,199.936829 337.898071,201.370758 
	C338.750702,197.899124 339.904663,194.295486 341.090088,190.271194 
z"/>
<path fill="#D44376" opacity="1.000000" stroke="none" 
	d="
M158.779053,176.148804 
	C156.634766,179.328323 154.147751,182.559570 151.356720,185.934143 
	C153.513931,182.785156 155.975143,179.492844 158.779053,176.148804 
z"/>
<path fill="#D44376" opacity="1.000000" stroke="none" 
	d="
M334.385742,182.976562 
	C336.592712,184.829086 338.783600,187.037796 341.066925,189.571655 
	C338.896149,187.708786 336.632904,185.520752 334.385742,182.976562 
z"/>
<path fill="#D44376" opacity="1.000000" stroke="none" 
	d="
M180.520660,231.856781 
	C182.411957,232.664276 184.238297,233.846771 186.219986,235.316605 
	C184.402115,234.479874 182.428925,233.355804 180.520660,231.856781 
z"/>
<path fill="#D44376" opacity="1.000000" stroke="none" 
	d="
M348.540588,169.081238 
	C347.248749,168.354172 346.019928,167.250641 344.651245,165.868286 
	C345.875427,166.627914 347.239563,167.666351 348.540588,169.081238 
z"/>
<path fill="#D44376" opacity="1.000000" stroke="none" 
	d="
M180.758575,205.911499 
	C179.529541,205.078857 178.281418,203.895813 176.952942,202.394897 
	C178.161545,203.238373 179.450500,204.399734 180.758575,205.911499 
z"/>
<path fill="#D44376" opacity="1.000000" stroke="none" 
	d="
M183.902588,208.723267 
	C182.935471,208.327301 181.946381,207.575470 180.848068,206.524780 
	C181.786087,206.939758 182.833344,207.653564 183.902588,208.723267 
z"/>
<path fill="#D44376" opacity="1.000000" stroke="none" 
	d="
M335.266052,203.689865 
	C334.977051,204.444260 334.357788,205.217834 333.455261,206.093536 
	C333.759949,205.366806 334.347870,204.537918 335.266052,203.689865 
z"/>
<path fill="#D44376" opacity="1.000000" stroke="none" 
	d="
M170.699661,164.049805 
	C170.634583,164.430237 170.280121,164.886932 169.633774,165.417999 
	C169.698013,165.036957 170.054138,164.581512 170.699661,164.049805 
z"/>
<path fill="#D44376" opacity="1.000000" stroke="none" 
	d="
M344.381775,165.298431 
	C344.180786,165.368378 343.899536,165.197525 343.538513,164.784668 
	C343.739716,164.714325 344.020599,164.885986 344.381775,165.298431 
z"/>
<path fill="#D44376" opacity="1.000000" stroke="none" 
	d="
M337.330811,201.612885 
	C337.550629,201.869232 337.412354,202.142899 336.923615,202.442963 
	C336.692505,202.186890 336.825714,201.907181 337.330811,201.612885 
z"/>
<path fill="#D44376" opacity="1.000000" stroke="none" 
	d="
M343.380066,164.306091 
	C343.180939,164.381729 342.900085,164.219421 342.534241,163.820786 
	C342.732269,163.745697 343.015289,163.906937 343.380066,164.306091 
z"/>
<path fill="#D44376" opacity="1.000000" stroke="none" 
	d="
M333.406555,181.856598 
	C333.602631,181.789612 333.913788,181.965775 334.322144,182.399277 
	C334.120087,182.470993 333.820892,182.285385 333.406555,181.856598 
z"/>
<path fill="#D44376" opacity="1.000000" stroke="none" 
	d="
M179.501068,230.757568 
	C179.696091,230.671738 180.001617,230.822922 180.415253,231.214951 
	C180.219421,231.302063 179.915497,231.148331 179.501068,230.757568 
z"/>
<path fill="#D44376" opacity="1.000000" stroke="none" 
	d="
M322.168793,215.428680 
	C322.202881,215.637131 321.972412,215.929825 321.458557,216.274506 
	C321.418213,216.055283 321.661194,215.784103 322.168793,215.428680 
z"/>
<path fill="#D44376" opacity="1.000000" stroke="none" 
	d="
M184.493164,204.500519 
	C184.507278,204.496780 184.479065,204.504272 184.493164,204.500519 
z"/>
<path fill="#D44376" opacity="1.000000" stroke="none" 
	d="
M336.335510,202.756195 
	C336.536255,203.021530 336.396057,203.261444 335.922791,203.487579 
	C335.705658,203.220642 335.840607,202.972961 336.335510,202.756195 
z"/>
<path fill="#E32767" opacity="1.000000" stroke="none" 
	d="
M262.925415,256.034821 
	C269.270630,273.503479 275.506714,290.598663 281.981995,308.349548 
	C265.154999,308.349548 249.303848,308.349548 232.230759,308.349548 
	C240.426437,285.986664 248.451691,264.088776 256.476959,242.190872 
	C256.884216,242.236496 257.291504,242.282120 257.698761,242.327744 
	C259.404602,246.772293 261.110443,251.216843 262.925415,256.034821 
z"/>
</svg>